<?xml version="1.0" encoding="UTF-8"?>
<svg id="Calque_1" data-name="Calque 1" xmlns="http://www.w3.org/2000/svg" viewBox="0 0 293.26 553.01">
  <defs>
    <style>
      .cls-1 {
        fill: #818586;
      }

      .cls-1, .cls-2, .cls-3, .cls-4, .cls-5 {
        stroke-width: 0px;
      }

      .cls-2 {
        fill: #34485b;
      }

      .cls-3 {
        fill: #b8c3c9;
      }

      .cls-4 {
        fill: #3a5469;
      }

      .cls-6 {
        fill: none;
        stroke: #1d1d1b;
        stroke-miterlimit: 10;
      }

      .cls-5 {
        fill: #647a8a;
      }
    </style>
  </defs>
  <path class="cls-3" d="M231.95,85.32C231.95,38.2,193.75,0,146.63,0S61.31,38.2,61.31,85.32v150.54h170.64V85.32Z"/>
  <rect class="cls-4" x="44.39" y="235.86" width="204.48" height="25.08"/>
  <path class="cls-2" d="M61.31,260.14v51.45c0,47.12,38.2,66.32,85.32,66.32s85.32-19.2,85.32-66.32v-51.45"/>
  <rect class="cls-4" x="20.3" y="243" width="24.09" height="10.8"/>
  <rect class="cls-4" x="248.87" y="243" width="24.09" height="10.8"/>
  <path class="cls-5" d="M292.76,243.23v.04c-.11,108.88-65.49,197.09-146.13,197.09S.61,352.15.5,243.27v-.04c.02-5.44,4.44-9.86,9.9-9.86s9.9,4.44,9.9,9.9v5.9c0,94.23,56.56,170.61,126.33,170.61s126.33-76.38,126.33-170.61v-5.9c0-5.46,4.43-9.9,9.9-9.9s9.88,4.42,9.9,9.86Z"/>
  <path class="cls-6" d="M.5,243.23v-.23"/>
  <path class="cls-6" d="M292.76,243.23v-.23"/>
  <rect class="cls-5" x="130.97" y="439.36" width="31.32" height="90.59"/>
  <rect class="cls-5" x="86.69" y="528.94" width="119.88" height="24.04"/>
  <path class="cls-5" d="M205.57,528.9c6.65,0,12.04,5.39,12.04,12.04s-5.39,12.04-12.04,12.04"/>
  <path class="cls-5" d="M87.69,528.92c-6.65,0-12.04,5.39-12.04,12.04s5.39,12.04,12.04,12.04"/>
  <rect class="cls-1" x="61.31" y="107.04" width="59.91" height="13.68"/>
  <path class="cls-1" d="M120.55,107.04c3.78,0,6.84,3.06,6.84,6.84s-3.06,6.84-6.84,6.84"/>
  <rect class="cls-1" x="61.31" y="138.12" width="59.91" height="13.68"/>
  <path class="cls-1" d="M120.55,138.12c3.78,0,6.84,3.06,6.84,6.84s-3.06,6.84-6.84,6.84"/>
  <rect class="cls-1" x="61.31" y="166.92" width="59.91" height="13.68"/>
  <path class="cls-1" d="M120.55,166.92c3.78,0,6.84,3.06,6.84,6.84s-3.06,6.84-6.84,6.84"/>
  <rect class="cls-1" x="172.04" y="108.18" width="59.91" height="13.68" transform="translate(403.99 230.05) rotate(180)"/>
  <path class="cls-1" d="M172.71,108.18c-3.78,0-6.84,3.06-6.84,6.84s3.06,6.84,6.84,6.84"/>
  <rect class="cls-1" x="172.04" y="139.26" width="59.91" height="13.68" transform="translate(403.99 292.21) rotate(180)"/>
  <path class="cls-1" d="M172.71,139.26c-3.78,0-6.84,3.06-6.84,6.84s3.06,6.84,6.84,6.84"/>
  <rect class="cls-1" x="172.04" y="168.06" width="59.91" height="13.68" transform="translate(403.99 349.81) rotate(180)"/>
  <path class="cls-1" d="M172.71,168.06c-3.78,0-6.84,3.06-6.84,6.84s3.06,6.84,6.84,6.84"/>
</svg>